<mxfile host="app.diagrams.net" modified="2023-09-01T12:42:58.685Z" agent="Mozilla/5.0 (Windows NT 10.0; Win64; x64) AppleWebKit/537.36 (KHTML, like Gecko) Chrome/116.0.0.0 Safari/537.36" version="21.7.1" etag="ZO00w5OCh1-7OenM3zQp" type="github">
  <diagram name="PÃ¡gina-1" id="dRejd29ythdaDgjj3McS">
    <mxGraphModel>
      <root>
        <mxCell id="0" />
        <mxCell id="1" parent="0" />
      </root>
    </mxGraphModel>
  </diagram>
</mxfile>
